# xmcd CD database file
#
# Track frame offsets:
#	182
#	17507
#	24482
#	31982
#	46157
#	53657
#	60257
#	75557
#	90857
#	101507
#	118607
#	135182
#	142682
#	161507
#	168557
#	178232
#	192857
#	201182
#	204557
#	214982
#	230057
#	237407
#	246107
#	254057
#	261557
#	266582
#	274307
#	286832
#
# Disc length: 3908 seconds
#
# Revision: 0
# Processed by: cddbd v1.5.1PL0 Copyright (c) Steve Scherf et al.
# Submitted via: CDex 1.51
#
DISCID=890f421c
DTITLE=Sonoton Authentic Series - SAS 030 - Authentic  Malaysia
DYEAR=1989
DGENRE=Contentum
TTITLE0=Wayang Kulit 1
TTITLE1=Wayang Kulit 2
TTITLE2=Wayang Kulit 3
TTITLE3=Kuda Kepang 1
TTITLE4=Kuda Kepang 2
TTITLE5=Kuda Kepang 3
TTITLE6=Ghazal 1
TTITLE7=Ghazal 2
TTITLE8=Ghazal 3
TTITLE9=Dondang Sayang
TTITLE10=Asli 1
TTITLE11=Asli 2
TTITLE12=Mengadap Rebab 1
TTITLE13=Mengadap Rebab 2
TTITLE14=Mengadap Rebab 3
TTITLE15=Silat 1
TTITLE16=Silat 2
TTITLE17=Silat 3
TTITLE18=Silat 4
TTITLE19=Kumpalan Muzik Gambus 1
TTITLE20=Kumpalan Muzik Gambus 2
TTITLE21=Kumpalan Muzik Gambus 3
TTITLE22=Kompang tune
TTITLE23=Air Mata Hati
TTITLE24=Joget Kelantan
TTITLE25=Patah Hati
TTITLE26=Malay Mood
TTITLE27=Rebana Tune
EXTD=YEAR: 1989
EXTT0=
EXTT1=
EXTT2=
EXTT3=
EXTT4=
EXTT5=
EXTT6=
EXTT7=
EXTT8=
EXTT9=
EXTT10=
EXTT11=
EXTT12=
EXTT13=
EXTT14=
EXTT15=
EXTT16=
EXTT17=
EXTT18=
EXTT19=
EXTT20=
EXTT21=
EXTT22=
EXTT23=
EXTT24=
EXTT25=
EXTT26=
EXTT27=
PLAYORDER=
